<?xml version="1.0" standalone="no"?>
<!DOCTYPE svg PUBLIC "-//W3C//DTD SVG 20010904//EN"
 "http://www.w3.org/TR/2001/REC-SVG-20010904/DTD/svg10.dtd">
<svg version="1.0" xmlns="http://www.w3.org/2000/svg"
 width="200.000000pt" height="158.000000pt" viewBox="0 0 200.000000 158.000000"
 preserveAspectRatio="xMidYMid meet">
<metadata>
Created by potrace 1.10, written by Peter Selinger 2001-2011
</metadata>
<g transform="translate(0.000000,158.000000) scale(0.100000,-0.100000)"
fill="#000000" stroke="none">
<path d="M514 1249 c-18 -20 -19 -41 -19 -394 0 -353 1 -374 19 -394 19 -20
27 -21 283 -21 247 0 264 1 261 17 -3 17 -24 18 -253 20 -138 1 -256 2 -263 2
-10 1 -12 79 -10 374 l3 372 503 3 c497 2 504 2 509 -18 6 -24 31 -26 40 -3 4
10 -3 24 -21 40 l-27 23 -503 0 c-499 0 -503 0 -522 -21z"/>
<path d="M1294 1074 c-58 -21 -120 -77 -151 -138 -38 -73 -38 -179 -1 -252 15
-27 34 -56 42 -63 13 -11 16 -41 16 -182 0 -97 4 -170 10 -174 5 -3 48 15 95
39 l87 45 89 -45 c50 -24 94 -42 99 -39 6 4 10 77 10 171 0 160 1 166 25 198
61 80 77 199 38 287 -59 133 -221 202 -359 153z m221 -52 c123 -66 162 -228
83 -347 -88 -133 -264 -150 -377 -37 -77 78 -94 184 -43 282 65 128 207 171
337 102z m-134 -490 c52 -3 77 1 114 17 26 12 49 21 51 21 1 0 4 -59 6 -130 2
-72 2 -130 0 -130 -1 0 -39 18 -83 40 l-81 41 -73 -41 c-41 -22 -76 -40 -77
-40 -2 0 -5 60 -6 134 l-1 133 42 -21 c26 -12 68 -22 108 -24z"/>
<path d="M716 952 c-2 -4 -1 -14 3 -20 5 -9 40 -12 127 -10 104 3 119 5 122
21 3 15 -8 17 -122 17 -69 0 -127 -4 -130 -8z"/>
<path d="M719 774 c-17 -20 4 -24 128 -24 100 0 123 3 123 14 0 12 -24 15
-121 18 -79 2 -124 -1 -130 -8z"/>
</g>
</svg>
