<?xml version="1.0" standalone="no"?>
<!DOCTYPE svg PUBLIC "-//W3C//DTD SVG 20010904//EN"
 "http://www.w3.org/TR/2001/REC-SVG-20010904/DTD/svg10.dtd">
<svg version="1.0" xmlns="http://www.w3.org/2000/svg"
 width="172.000000pt" height="148.000000pt" viewBox="0 0 172.000000 148.000000"
 preserveAspectRatio="xMidYMid meet">
<metadata>
Created by potrace 1.10, written by Peter Selinger 2001-2011
</metadata>
<g transform="translate(0.000000,148.000000) scale(0.100000,-0.100000)"
fill="#000000" stroke="none">
<path d="M805 1360 c-90 -59 -85 -208 8 -257 76 -39 166 -9 205 67 25 49 23
89 -4 143 -34 64 -145 89 -209 47z m135 -25 c76 -39 80 -151 8 -195 -99 -60
-213 39 -163 143 28 59 97 82 155 52z"/>
<path d="M705 1016 c-16 -7 -51 -37 -77 -67 -25 -30 -54 -63 -65 -75 -110
-126 -140 -159 -150 -170 -37 -37 -33 -113 7 -134 46 -25 82 -12 170 60 46 38
85 68 86 67 1 -1 -25 -105 -58 -230 -53 -199 -59 -231 -48 -257 19 -45 84 -62
126 -33 10 8 134 215 169 282 21 42 16 49 121 -136 79 -140 100 -163 147 -163
35 0 77 40 77 75 0 25 -91 381 -111 432 -5 14 -8 28 -5 30 2 3 43 -27 91 -66
68 -56 93 -71 120 -71 49 0 80 29 80 77 0 33 -8 49 -44 89 -24 27 -88 100
-143 162 -55 62 -112 119 -128 127 -39 20 -320 21 -365 1z m333 -27 c43 -15
312 -318 312 -351 0 -28 -17 -48 -42 -48 -9 0 -68 41 -129 90 -111 89 -123 97
-132 82 -3 -4 26 -123 64 -266 75 -283 76 -300 17 -294 -29 3 -39 15 -132 175
-56 95 -105 171 -111 170 -5 -2 -43 -59 -83 -128 -122 -210 -129 -219 -155
-219 -28 0 -47 17 -47 43 0 10 29 129 65 265 40 151 61 250 55 256 -5 5 -53
-27 -123 -83 -63 -50 -122 -91 -130 -91 -21 0 -47 27 -47 50 0 24 273 331 308
347 34 15 268 17 310 2z"/>
</g>
</svg>
