<?xml version="1.0" standalone="no"?>
<!DOCTYPE svg PUBLIC "-//W3C//DTD SVG 20010904//EN"
 "http://www.w3.org/TR/2001/REC-SVG-20010904/DTD/svg10.dtd">
<svg version="1.0" xmlns="http://www.w3.org/2000/svg"
 width="198.000000pt" height="160.000000pt" viewBox="0 0 198.000000 160.000000"
 preserveAspectRatio="xMidYMid meet">
<metadata>
Created by potrace 1.10, written by Peter Selinger 2001-2011
</metadata>
<g transform="translate(0.000000,160.000000) scale(0.100000,-0.100000)"
fill="#000000" stroke="none">
<path d="M905 1301 c-52 -24 -93 -65 -119 -121 -17 -36 -21 -65 -21 -147 l0
-103 -110 0 c-168 0 -155 31 -155 -368 0 -280 2 -331 16 -350 l15 -22 468 0
c388 0 470 2 487 14 18 14 19 29 19 351 l0 337 -24 19 c-22 18 -43 19 -352 19
l-329 0 0 98 c1 138 33 202 124 243 103 47 230 -8 272 -117 17 -45 44 -60 44
-24 0 55 -75 146 -142 174 -51 22 -143 20 -193 -3z m560 -746 l0 -330 -460 0
-460 0 -3 333 -2 332 462 -2 463 -3 0 -330z"/>
<path d="M934 730 c-85 -55 -66 -205 27 -225 l31 -7 -6 -57 c-3 -31 -2 -62 3
-70 17 -27 31 1 31 62 l1 62 38 18 c77 35 93 139 33 200 -40 40 -112 48 -158
17z m130 -38 c70 -63 13 -175 -80 -158 -38 8 -74 47 -74 82 0 84 93 130 154
76z"/>
</g>
</svg>
