<?xml version="1.0" standalone="no"?>
<!DOCTYPE svg PUBLIC "-//W3C//DTD SVG 20010904//EN"
 "http://www.w3.org/TR/2001/REC-SVG-20010904/DTD/svg10.dtd">
<svg version="1.0" xmlns="http://www.w3.org/2000/svg"
 width="182.000000pt" height="142.000000pt" viewBox="0 0 182.000000 142.000000"
 preserveAspectRatio="xMidYMid meet">
<metadata>
Created by potrace 1.10, written by Peter Selinger 2001-2011
</metadata>
<g transform="translate(0.000000,142.000000) scale(0.100000,-0.100000)"
fill="#000000" stroke="none">
<path d="M464 1140 c-12 -4 -31 -21 -43 -36 -21 -26 -21 -35 -21 -366 0 -368
2 -382 55 -406 19 -9 153 -12 496 -12 l471 0 34 34 34 34 0 346 0 346 -29 32
-29 33 -474 2 c-260 1 -483 -2 -494 -7z m972 -51 c18 -20 19 -43 22 -342 3
-328 -1 -368 -35 -381 -20 -8 -935 -8 -955 -1 -34 13 -38 52 -38 374 0 307 1
319 21 345 l20 26 473 0 c468 0 473 0 492 -21z"/>
<path d="M847 924 c-11 -12 -8 -384 3 -384 16 0 289 184 289 195 0 6 -61 51
-136 100 -155 102 -147 98 -156 89z m143 -122 c52 -35 96 -65 98 -66 2 -2 -83
-61 -190 -130 l-28 -18 0 146 c0 115 3 145 13 139 6 -4 55 -37 107 -71z"/>
<path d="M755 169 c-16 -25 18 -29 196 -27 156 3 184 5 184 18 0 13 -29 15
-187 18 -128 2 -189 -1 -193 -9z"/>
</g>
</svg>
